<svg xmlns="http://www.w3.org/2000/svg" fill="none" viewBox="0 0 32 32">
  <path fill="#FF7B47" fill-rule="evenodd" d="M18.2367 8.77151c-.4638.32157-.987.54754-1.5391.66472-.552.11719-1.1219.12326-1.6764.01784-.5544-.10542-1.0823-.32022-1.5528-.63184-.4705-.31163-.8743-.71385-1.1877-1.18319s-.5302-.99641-.6377-1.55043c-.1076-.55403-.1037-1.12393.0114-1.67643.1151-.55251.3391-1.07656.6589-1.54158.3198-.46501.729-.86167 1.2037-1.16684.9374-.6191 2.0816-.841947 3.1828-.61983 1.1011.22212 2.0695.87113 2.6935 1.80518.624.93404.8529 2.07714.6365 3.17942-.2163 1.10228-.8602 2.07409-1.791 2.70298h-.0021Zm-1.1794-5.29975c-.2314-.16648-.494-.2847-.772-.34761-.2781-.06291-.566-.06922-.8465-.01857-.2805.05064-.548.15723-.7865.31339-.2385.15617-.4432.35873-.6018.59563-.1586.23689-.2679.50328-.3214.78329-.0535.28002-.0501.56794.0099.84662.0601.27868.1756.54243.3398.77553.1641.23311.3734.43082.6155.58135.4677.28413 1.0271.37685 1.5615.25884.5344-.11801 1.0027-.43765 1.3072-.89234.3046-.45469.422-1.00937.3278-1.54848s-.3928-1.02108-.8335-1.34552v-.00213Zm5.5463.06375c.6128-.41225 1.3503-.59789 2.0853-.52497.735.07292 1.4216.39984 1.9415.92447.3705.37347.6437.83214.7956 1.33578.152.50364.178 1.03687.0758 1.55292-.1021.51604-.3294.99913-.6617 1.4069-.3324.40777-.7597.72776-1.2445.9319-.5823.24347-1.2241.3076-1.843.18418-.619-.12341-1.187-.42875-1.6314-.87693-.334-.33571-.5897-.74111-.7487-1.18717-.159-.44606-.2175-.92176-.1712-1.39305.0463-.47129.1962-.92652.439-1.33311s.5724-.75449.9654-1.01879l-.0021-.00213Zm1.02 3.42125c.1995.19867.4697.30994.7513.30934.1394-.0003.2774-.02805.406-.08167.1287-.05362.2456-.13207.344-.23086.0983-.09878.1763-.21598.2294-.34489.053-.12891.0802-.26701.0799-.40642-.0003-.13941-.028-.2774-.0817-.40608-.0536-.12869-.132-.24555-.2308-.34392-.1979-.19898-.4653-.31327-.7459-.31875-.1401-.00028-.279.02722-.4084.08091-.1295.05369-.247.13252-.3458.23191-.0988.0994-.1769.21739-.2298.34717-.053.12977-.0796.26874-.0785.40889.0007.283.112.55451.3103.7565v-.00213ZM5.65455 25.3975H9.5008v2.1356H5.65455c-.67332-.006-1.31675-.2789-1.78925-.7586-.47431-.4815-.73997-1.1304-.7395-1.8062V21.122c-.2861-.0096-.5673-.077-.82661-.1983-.25931-.1212-.49136-.2938-.68214-.5072-.20272-.2053-.36181-.4495-.46771-.718-.10591-.2684-.156431-.5554-.14854-.8439v-4.6367c.00638-1.003.40375-1.9614 1.105-2.6733.69913-.7033 1.64475-1.105 2.635-1.1113h3.91c-.5274.6281-.92468 1.3547-1.16875 2.1377H4.7408c-.43129.0124-.84165.1887-1.1475.493-.30043.3089-.4682.723-.4675 1.1539v4.743h2.125v6.0052c-.00493.0579.00195.1162.02021.1714.01827.0551.04754.106.08604.1495.08542.066.18959.1032.2975.1063v.0042ZM21.167 11.5468c-.3477-.3511-.7613-.6301-1.2172-.8208-.4558-.1907-.9449-.2895-1.439-.2906h-5.27c-.9906.0079-1.9379.4074-2.635 1.1114-.70125.7118-1.09862 1.6702-1.105 2.6732v6.7533c-.003.5798.21773 1.1385.6163 1.5597.191.2132.4231.3855.6823.5067.2593.1213.5404.1889.8264.1988v4.9364c-.002.3369.0627.6709.1903.9827.1277.3119.3158.5953.5535.8342.3825.357.8648.5886 1.3812.663h4.25c.5977-.0785 1.1453-.3751 1.5376-.8329.3922-.4577.6014-1.0443.5874-1.647v-4.9385c.2861-.0096.5673-.077.8266-.1983.2593-.1212.4914-.2938.6822-.5072.2025-.205.3615-.4489.4674-.7169.1059-.2681.1565-.5548.1488-.8429v-6.7532c.0015-.9984-.3875-1.9578-1.0838-2.6733v.0022Zm-1.0412 9.5306h-2.125v7.0975c-.0021.112-.0478.2188-.1275.2975-.0363.0429-.082.0768-.1337.0989-.0516.0222-.1077.0319-.1638.0286h-3.4212c-.1111-.0052-.2162-.0516-.2948-.1302s-.1251-.1838-.1302-.2948v-7.0975h-2.1038v-6.8595c0-.4314.1679-.8458.4675-1.1539.3059-.3043.7162-.4806 1.1475-.493h5.27c.3219.0057.6352.1052.9013.2864.2661.1812.4736.4362.5968.7336.0809.1989.1207.4122.1169.6269v6.8595Zm5.9713 6.4536h-3.8463v-2.1356h3.825c.1079-.003.2121-.0402.2975-.1063.0428-.0418.0763-.0922.0982-.1478.022-.0557.032-.1154.0293-.1752v-6.0052h2.125v-4.743c.0007-.4309-.1671-.845-.4675-1.1539-.3059-.3043-.7162-.4806-1.1475-.493h-2.7412c-.244-.783-.6413-1.5097-1.1688-2.1377h3.91c.9904.009 1.9373.4084 2.635 1.1113.7012.7119 1.0986 1.6703 1.105 2.6733v4.6367c0 .5802-.2189 1.1369-.6141 1.5577-.3953.4228-.935.6757-1.5109.7076v3.8462c0 .6779-.2656 1.326-.7395 1.8063-.4725.4797-1.1159.7525-1.7892.7586ZM7.3758 2.99576c-.63234-.00073-1.25049.18738-1.77523.54024-.52474.35285-.93215.85437-1.17002 1.44026-.24006.58569-.30238 1.2291-.17919 1.84997.1232.62087.42645 1.19174.87194 1.64141.44533.44914 1.01444.75534 1.63463.87948.62019.12414 1.26331.06058 1.84721-.18256.58389-.24314 1.08205-.65481 1.43086-1.18244.3488-.52763.5324-1.14726.5273-1.77973 0-.85-.3357-1.666-.935-2.26738-.29507-.29722-.64597-.5332-1.03253-.69438-.38656-.16119-.80115-.24441-1.21997-.24487Zm0 4.2755c-.14015.00029-.27896-.02721-.40841-.08091-.12946-.05369-.24698-.13251-.34579-.23191-.0988-.09939-.17692-.21739-.22984-.34716-.05291-.12977-.07958-.26875-.07846-.40889.00055-.28222.11247-.5528.31143-.75295.19895-.20016.46887-.31369.75107-.31593.28134.00496.54968.11936.74806.31893.19837.19956.31117.46858.31444.74995-.00055.28221-.11247.5528-.31142.75295-.19896.20015-.46888.31368-.75108.31592Z" clip-rule="evenodd"/>
</svg>
