<svg width="9" height="10" viewBox="0 0 9 10" fill="none" xmlns="http://www.w3.org/2000/svg">
<path d="M0.316 10V0.199999H4.348C5.216 0.199999 5.958 0.339999 6.574 0.62C7.19933 0.899999 7.68 1.30133 8.016 1.824C8.352 2.34667 8.52 2.96733 8.52 3.686C8.52 4.40467 8.352 5.02533 8.016 5.548C7.68 6.06133 7.19933 6.458 6.574 6.738C5.958 7.00867 5.216 7.144 4.348 7.144H1.324L2.136 6.318V10H0.316ZM6.728 10L4.25 6.444H6.196L8.688 10H6.728ZM2.136 6.514L1.324 5.646H4.264C5.06667 5.646 5.66867 5.47333 6.07 5.128C6.48067 4.78267 6.686 4.302 6.686 3.686C6.686 3.06067 6.48067 2.58 6.07 2.244C5.66867 1.908 5.06667 1.74 4.264 1.74H1.324L2.136 0.843999V6.514Z" fill="black"/>
</svg>
