<svg
	xmlns="http://www.w3.org/2000/svg" 
	fill="#0D5C63"
	viewBox="0 0 48 48">
	<g clip-path="url(#a)">
		<path d="M29.1416 13.624h11.9979v3.4453H29.1416V13.624Zm0 8.6133h11.9979v3.4453H29.1416v-3.4453Zm0 8.6133h11.9979v3.4453H29.1416v-3.4453Z"/>
		<path d="M44.5674 5.01123H3.43187c-.90888.00091-1.78026.36419-2.42294 1.01012C.366264 6.66727.00481376 7.54307.00390625 8.45655V39.4644c.00090751.9135.36235775 1.7893 1.00502375 2.4352.64268.6459 1.51406 1.0092 2.42294 1.0101H44.5674c.9087-.0013 1.7798-.3648 2.4224-1.0106.6426-.6458 1.0042-1.5214 1.0055-2.4347V8.45655c-.0009-.91348-.3623-1.78928-1.005-2.4352-.6426-.64593-1.514-1.00921-2.4229-1.01012ZM3.43187 8.45655H22.2856V39.4644H3.43187V8.45655ZM25.7136 39.4644V8.45655h18.8538l.0034 31.00785H25.7136Z"/>
	</g>
	<defs>
		<clipPath id="a">
			<path d="M0 5h48v37.92H0z"/>
		</clipPath>
	</defs>
</svg>