<svg width="57" height="71" viewBox="0 0 57 71" fill="none" xmlns="http://www.w3.org/2000/svg">
<path fill-rule="evenodd" clip-rule="evenodd" d="M28.5 71C27.7591 71 27.0367 70.7693 26.4338 70.3403C25.3508 69.577 -0.102998 51.2624 0.000313622 28.3825C0.000313622 12.7411 12.786 0 28.5 0C44.214 0 56.9997 12.7411 56.9997 28.4002C57.103 51.2624 31.6492 69.577 30.5662 70.3403C29.9633 70.7693 29.2409 71 28.5 71ZM49.8748 28.418C49.8748 16.6532 40.2882 7.10006 28.5 7.10006C16.7118 7.10006 7.12524 16.6532 7.12524 28.4002C7.05042 44.1659 22.7609 58.3163 28.5 62.9598C34.2427 58.3199 49.9496 44.173 49.8748 28.418ZM43 28C43 35.721 36.4967 42 28.5 42C20.5033 42 14 35.721 14 28C14 20.279 20.5033 14 28.5 14C36.4967 14 43 20.279 43 28ZM35.75 28C35.75 24.1395 32.4984 21 28.5 21C24.5016 21 21.25 24.1395 21.25 28C21.25 31.8605 24.5016 35 28.5 35C32.4984 35 35.75 31.8605 35.75 28Z" fill="white"/>
</svg>
